<?xml version="1.0" encoding="UTF-8"?>
<svg width="800" height="800" viewBox="0 0 800 800" fill="none" xmlns="http://www.w3.org/2000/svg">
  <circle cx="100" cy="100" r="10" fill="white" fill-opacity="0.2"/>
  <circle cx="300" cy="100" r="8" fill="white" fill-opacity="0.2"/>
  <circle cx="500" cy="100" r="12" fill="white" fill-opacity="0.2"/>
  <circle cx="700" cy="100" r="6" fill="white" fill-opacity="0.2"/>
  
  <circle cx="100" cy="300" r="12" fill="white" fill-opacity="0.2"/>
  <circle cx="300" cy="300" r="8" fill="white" fill-opacity="0.2"/>
  <circle cx="500" cy="300" r="10" fill="white" fill-opacity="0.2"/>
  <circle cx="700" cy="300" r="8" fill="white" fill-opacity="0.2"/>
  
  <circle cx="100" cy="500" r="6" fill="white" fill-opacity="0.2"/>
  <circle cx="300" cy="500" r="10" fill="white" fill-opacity="0.2"/>
  <circle cx="500" cy="500" r="8" fill="white" fill-opacity="0.2"/>
  <circle cx="700" cy="500" r="12" fill="white" fill-opacity="0.2"/>
  
  <circle cx="100" cy="700" r="8" fill="white" fill-opacity="0.2"/>
  <circle cx="300" cy="700" r="6" fill="white" fill-opacity="0.2"/>
  <circle cx="500" cy="700" r="12" fill="white" fill-opacity="0.2"/>
  <circle cx="700" cy="700" r="10" fill="white" fill-opacity="0.2"/>

  <circle cx="200" cy="200" r="4" fill="white" fill-opacity="0.15"/>
  <circle cx="400" cy="200" r="6" fill="white" fill-opacity="0.15"/>
  <circle cx="600" cy="200" r="4" fill="white" fill-opacity="0.15"/>
  
  <circle cx="200" cy="400" r="6" fill="white" fill-opacity="0.15"/>
  <circle cx="400" cy="400" r="4" fill="white" fill-opacity="0.15"/>
  <circle cx="600" cy="400" r="6" fill="white" fill-opacity="0.15"/>
  
  <circle cx="200" cy="600" r="4" fill="white" fill-opacity="0.15"/>
  <circle cx="400" cy="600" r="6" fill="white" fill-opacity="0.15"/>
  <circle cx="600" cy="600" r="4" fill="white" fill-opacity="0.15"/>
</svg>
