<?xml version="1.0" encoding="UTF-8"?>
<svg width="512" height="512" viewBox="0 0 512 512" fill="none" xmlns="http://www.w3.org/2000/svg">
  <rect width="512" height="512" rx="100" fill="url(#paint0_linear)"/>
  <path d="M128.5 331L190 154H242.5L304 331H258.5L211.5 184.5H221L173.5 331H128.5Z" fill="white"/>
  <path d="M312 331V154H382.5C393.333 154 402.833 156.167 411 160.5C419.167 164.833 425.5 171 430 179C434.5 187 436.75 196.5 436.75 207.5C436.75 218.5 434.5 228.167 430 236.5C425.5 244.833 419.083 251.333 410.75 256C402.417 260.667 392.667 263 381.5 263H335.5V331H312ZM335.5 242.5H380C388.167 242.5 394.583 239.833 399.25 234.5C404.083 229.167 406.5 222 406.5 213C406.5 203.833 404.083 196.667 399.25 191.5C394.583 186.167 388.167 183.5 380 183.5H335.5V242.5Z" fill="white"/>
  <defs>
    <linearGradient id="paint0_linear" x1="0" y1="0" x2="512" y2="512" gradientUnits="userSpaceOnUse">
      <stop stop-color="#4F46E5"/>
      <stop offset="1" stop-color="#6366F1"/>
    </linearGradient>
  </defs>
</svg>
